# xmcd CD database file
#
# Track frame offsets:
#	150
#	10347
#	20335
#	32342
#	42002
#	52275
#	64727
#	75992
#	87167
#	99780
#	108017
#	119020
#	131007
#	141982
#	153122
#	164460
#	175820
#	188912
#	200937
#	214402
#	226172
#	237087
#	245415
#
# Disc length: 3394 seconds
#
# Revision: 0
# Processed by: cddbd v1.4PL0 Copyright (c) Steve Scherf et al.
# Submitted via: CDex 1.50
#
DISCID=2f0d4017
DTITLE=Howard Roberts - Something's Cookin'--Goodies
DYEAR=1965
DGENRE=Jazz
TTITLE0=Bluesette
TTITLE1=A Hard Day's Night
TTITLE2=The Lonesome Cowboy
TTITLE3=Frankie and What's His Name
TTITLE4=Blues in the Night
TTITLE5=Cute
TTITLE6=In a Mellow Tone
TTITLE7=Charade
TTITLE8=Maniac
TTITLE9=Recado Bossa Nova
TTITLE10=Something's Cookin'
TTITLE11=People
TTITLE12=Love
TTITLE13=Who Can I Turn To (When Nobody Needs Me)
TTITLE14=Three O'Clock in the Morning
TTITLE15=Marie
TTITLE16=Girl Talk
TTITLE17=Fly Me to the Moon
TTITLE18=Goodies
TTITLE19=More
TTITLE20=I Know a Place
TTITLE21=Summer Wind
TTITLE22=Chim Chim Cher-ee
EXTD=YEAR: 1965
EXTT0=
EXTT1=
EXTT2=
EXTT3=
EXTT4=
EXTT5=
EXTT6=
EXTT7=
EXTT8=
EXTT9=
EXTT10=
EXTT11=
EXTT12=
EXTT13=
EXTT14=
EXTT15=
EXTT16=
EXTT17=
EXTT18=
EXTT19=
EXTT20=
EXTT21=
EXTT22=
PLAYORDER=
